<svg xmlns="http://www.w3.org/2000/svg" xmlns:xlink="http://www.w3.org/1999/xlink" version="1.1" width="24" height="24" viewBox="0 0 256 256" xml:space="preserve">
<desc>Created with Fabric.js 1.7.22</desc>
<defs>
</defs>
<g transform="translate(128 128) scale(0.72 0.72)" style="">
	<g style="stroke: none; stroke-width: 0; stroke-dasharray: none; stroke-linecap: butt; stroke-linejoin: miter; stroke-miterlimit: 10; fill: none; fill-rule: nonzero; opacity: 1;" transform="translate(-175.05 -175.05000000000004) scale(3.89 3.89)" >
	<path d="M 45 65.765 c -14.808 0 -29.611 -6.418 -44.315 -19.258 C 0.25 46.127 0 45.578 0 45 s 0.25 -1.126 0.685 -1.506 c 29.405 -25.678 59.225 -25.678 88.631 0 C 89.75 43.874 90 44.422 90 45 s -0.25 1.127 -0.685 1.507 C 74.614 59.344 59.805 65.765 45 65.765 z M 5.077 45 c 26.843 22.484 53 22.486 79.847 0 C 58.078 22.515 31.92 22.515 5.077 45 z" style="stroke: none; stroke-width: 1; stroke-dasharray: none; stroke-linecap: butt; stroke-linejoin: miter; stroke-miterlimit: 10; fill: rgb(0,0,0); fill-rule: nonzero; opacity: 1;" transform=" matrix(1 0 0 1 0 0) " stroke-linecap="round" />
	<path d="M 45 58.291 c -7.329 0 -13.292 -5.962 -13.292 -13.291 S 37.671 31.708 45 31.708 S 58.291 37.671 58.291 45 S 52.329 58.291 45 58.291 z M 45 35.708 c -5.124 0 -9.292 4.168 -9.292 9.292 c 0 5.123 4.168 9.291 9.292 9.291 c 5.123 0 9.291 -4.168 9.291 -9.291 C 54.291 39.876 50.123 35.708 45 35.708 z" style="stroke: none; stroke-width: 1; stroke-dasharray: none; stroke-linecap: butt; stroke-linejoin: miter; stroke-miterlimit: 10; fill: rgb(0,0,0); fill-rule: nonzero; opacity: 1;" transform=" matrix(1 0 0 1 0 0) " stroke-linecap="round" />
</g>
</g>
</svg>